<svg xmlns="http://www.w3.org/2000/svg" xmlns:xlink="http://www.w3.org/1999/xlink" width="2400" zoomAndPan="magnify" viewBox="0 0 1800 843.749997" height="1125" preserveAspectRatio="xMidYMid meet" version="1.0"><defs><g/><clipPath id="1fcef42198"><path d="M 37 5 L 1037 5 L 1037 843.5 L 37 843.5 Z M 37 5 " clip-rule="nonzero"/></clipPath><clipPath id="55773c99ad"><path d="M 1157 5 L 1795 5 L 1795 843.5 L 1157 843.5 Z M 1157 5 " clip-rule="nonzero"/></clipPath></defs><g clip-path="url(#1fcef42198)"><g fill="#fdda32" fill-opacity="1"><g transform="translate(-25.684854, 844.183186)"><g><path d="M 333.257812 0 L 333.257812 -838.800781 L 62.878906 -838.800781 L 62.878906 0 Z M 697.953125 0 L 697.953125 -535.726562 C 697.953125 -623.757812 684.121094 -694.179688 617.46875 -760.832031 C 565.910156 -812.394531 509.316406 -836.285156 427.574219 -838.800781 L 427.574219 0 Z M 1062.648438 0 L 1062.648438 -535.726562 C 1062.648438 -623.757812 1048.816406 -694.179688 982.164062 -760.832031 C 930.605469 -812.394531 874.015625 -836.285156 792.273438 -838.800781 L 792.273438 0 Z M 1062.648438 0 "/></g></g></g></g><g clip-path="url(#55773c99ad)"><g fill="#fdda32" fill-opacity="1"><g transform="translate(1094.812116, 844.183186)"><g><path d="M 333.257812 0 L 333.257812 -838.800781 L 62.878906 -838.800781 L 62.878906 0 Z M 427.574219 -457.757812 C 540.757812 -459.015625 625.015625 -539.5 625.015625 -647.652344 C 625.015625 -755.800781 540.757812 -837.542969 427.574219 -838.800781 Z M 699.210938 0 L 427.574219 -271.636719 L 427.574219 0 Z M 699.210938 0 "/></g></g></g></g></svg>